<?xml version="1.0" standalone="no"?>
<!DOCTYPE svg PUBLIC "-//W3C//DTD SVG 20010904//EN"
 "http://www.w3.org/TR/2001/REC-SVG-20010904/DTD/svg10.dtd">
<svg version="1.0" xmlns="http://www.w3.org/2000/svg"
 width="256.000000pt" height="256.000000pt" viewBox="0 0 256.000000 256.000000"
 preserveAspectRatio="xMidYMid meet">

<g transform="translate(0.000000,256.000000) scale(0.100000,-0.100000)"
fill="#000000" stroke="none">
<path d="M330 1450 c0 -5 5 -10 10 -10 6 0 10 -60 10 -160 0 -100 -4 -160 -10
-160 -5 0 -10 -4 -10 -10 0 -5 20 -10 45 -10 48 0 55 6 30 24 -13 9 -15 34
-13 141 l3 130 44 -128 c38 -115 45 -128 65 -125 17 2 29 25 66 128 l45 125 3
-130 c2 -107 0 -132 -13 -141 -26 -19 -17 -24 50 -24 36 0 65 3 65 6 0 3 -7
12 -15 20 -12 12 -15 44 -15 154 0 110 3 142 15 154 24 23 19 26 -43 26 l-58
0 -38 -110 c-21 -60 -40 -110 -41 -110 -2 0 -20 50 -40 110 l-37 110 -59 0
c-33 0 -59 -4 -59 -10z"/>
<path d="M1355 1449 c-61 -17 -105 -90 -105 -173 0 -128 68 -186 196 -170 l54
6 0 39 c0 47 -18 51 -42 9 -14 -25 -24 -30 -53 -30 -29 0 -39 6 -56 33 -17 27
-20 46 -17 124 3 81 6 94 27 117 35 37 77 35 99 -4 24 -42 42 -38 42 9 0 37
-2 39 -37 45 -48 7 -70 6 -108 -5z"/>
<path d="M1550 1450 c0 -5 5 -10 10 -10 6 0 10 -60 10 -160 0 -100 -4 -160
-10 -160 -5 0 -10 -4 -10 -10 0 -5 20 -10 45 -10 48 0 55 6 30 24 -13 9 -15
34 -13 141 l3 130 44 -128 c38 -115 45 -128 65 -125 17 2 29 25 66 128 l45
125 3 -130 c2 -107 0 -132 -13 -141 -26 -19 -17 -24 50 -24 36 0 65 3 65 6 0
3 -7 12 -15 20 -12 12 -15 44 -15 154 0 110 3 142 15 154 24 23 19 26 -43 26
l-58 0 -38 -110 c-21 -60 -40 -110 -41 -110 -2 0 -20 50 -40 110 l-37 110 -59
0 c-33 0 -59 -4 -59 -10z"/>
<path d="M2073 1449 c-40 -12 -73 -53 -73 -91 0 -33 36 -72 109 -120 42 -29
50 -52 31 -89 -21 -38 -110 -14 -110 29 0 7 -9 12 -21 12 -17 0 -20 -5 -17
-37 3 -37 5 -38 51 -47 64 -11 114 0 149 34 51 51 35 116 -39 161 -57 34 -83
60 -83 84 0 28 18 45 50 45 31 0 44 -8 59 -37 19 -37 41 -29 41 16 0 37 -2 39
-37 45 -48 7 -70 6 -110 -5z"/>
<path d="M1083 1389 c-3 -19 -14 -34 -25 -36 -21 -6 -25 -23 -4 -23 10 0 15
-24 18 -95 3 -52 11 -101 17 -109 19 -22 67 -29 97 -14 40 19 43 39 5 32 -27
-6 -32 -3 -41 20 -5 15 -10 59 -10 97 l0 69 40 0 c29 0 40 4 40 15 0 11 -11
15 -40 15 -38 0 -40 2 -40 30 0 25 -4 30 -25 30 -21 0 -27 -6 -32 -31z"/>
<path d="M148 1331 c-114 -44 -118 -47 -118 -76 0 -29 4 -32 112 -75 62 -25
116 -46 120 -48 5 -2 8 8 8 21 0 26 -2 27 -164 87 -37 14 -29 21 64 54 95 34
102 39 98 64 -3 19 -9 17 -120 -27z"/>
<path d="M2270 1356 c0 -21 12 -28 100 -61 55 -21 100 -39 100 -40 0 -1 -45
-19 -100 -40 -88 -33 -100 -40 -100 -61 0 -13 1 -24 3 -24 2 0 57 22 123 48
113 46 119 50 119 77 0 27 -6 31 -119 77 -66 26 -121 48 -123 48 -2 0 -3 -11
-3 -24z"/>
<path d="M875 1356 c-5 -2 -29 -9 -52 -16 -35 -11 -43 -18 -43 -37 0 -31 41
-32 55 0 21 48 85 26 85 -29 0 -23 -8 -28 -71 -38 -46 -8 -79 -39 -79 -75 0
-54 58 -74 120 -42 40 20 40 20 40 1 0 -17 7 -20 47 -20 44 0 45 1 30 18 -13
14 -17 39 -17 104 0 67 -4 91 -17 107 -17 20 -73 35 -98 27z m45 -161 c0 -39
-34 -70 -64 -59 -27 10 -17 65 14 81 40 20 50 16 50 -22z"/>
</g>
</svg>
